<svg width="36" height="36" viewBox="0 0 36 36" fill="none" xmlns="http://www.w3.org/2000/svg">
<path fill-rule="evenodd" clip-rule="evenodd" d="M25.0711 10.7522C25.2794 10.9606 25.3965 11.2432 25.3965 11.5379C25.3965 11.8326 25.2794 12.1152 25.0711 12.3236L18.7857 18.609C18.5773 18.8173 18.2947 18.9344 18 18.9344C17.7053 18.9344 17.4227 18.8173 17.2143 18.609L10.9289 12.3236C10.7206 12.1152 10.6035 11.8326 10.6035 11.5379C10.6035 11.2432 10.7206 10.9606 10.9289 10.7522C11.1373 10.5438 11.4199 10.4268 11.7146 10.4268C12.0093 10.4268 12.2919 10.5438 12.5003 10.7522L18 16.2519L23.4997 10.7522C23.7081 10.5438 23.9907 10.4268 24.2854 10.4268C24.5801 10.4268 24.8627 10.5438 25.0711 10.7522V10.7522Z" fill="white"/>
<path fill-rule="evenodd" clip-rule="evenodd" d="M17.2143 17.0376C17.4227 16.8293 17.7053 16.7122 18 16.7122C18.2947 16.7122 18.5773 16.8293 18.7857 17.0376L25.0711 23.323C25.2794 23.5314 25.3965 23.814 25.3965 24.1087C25.3965 24.4034 25.2794 24.686 25.0711 24.8944C24.8627 25.1027 24.5801 25.2198 24.2854 25.2198C23.9907 25.2198 23.7081 25.1027 23.4997 24.8944L18 19.3946L12.5003 24.8944C12.2919 25.1027 12.0093 25.2198 11.7146 25.2198C11.4199 25.2198 11.1373 25.1027 10.9289 24.8944C10.7206 24.686 10.6035 24.4034 10.6035 24.1087C10.6035 23.814 10.7206 23.5314 10.9289 23.323L17.2143 17.0376Z" fill="white"/>
</svg>
