<svg width="40" height="40" viewBox="0 0 40 40" fill="none" xmlns="http://www.w3.org/2000/svg">
<circle cx="20" cy="20" r="20" fill="white"/>
<g clip-path="url(#clip0)">
<path d="M12.7791 19.543C12.6463 19.543 12.5135 19.5948 12.4139 19.6979C12.219 19.8996 12.2245 20.2211 12.4262 20.416C13.0902 21.0577 14.1707 21.0577 14.8348 20.416C15.0365 20.2211 15.042 19.8996 14.8471 19.6979C14.6522 19.4962 14.3307 19.4908 14.129 19.6857C13.8541 19.9513 13.4069 19.9513 13.1319 19.6857C13.0334 19.5903 12.9062 19.543 12.7791 19.543V19.543Z" fill="#F07C7C"/>
<path d="M32.985 22.3055C33.0489 22.0478 32.9035 21.7844 32.6514 21.7012C31.4485 21.3038 30.0145 20.4078 30.0145 18.3961V17.3309C30.0145 15.6882 29.6382 14.4026 28.8961 13.51C28.1778 12.6461 27.1336 12.1895 25.8765 12.1895C24.672 12.1895 23.6471 12.6443 22.9124 13.5049C22.1444 14.4045 21.7384 15.7275 21.7384 17.3309V18.3961C21.7384 19.5102 21.3008 20.3955 20.4371 21.0306C20.2311 20.9894 20.0183 20.9674 19.8004 20.9674C18.4115 20.9674 17.2232 21.8434 16.7596 23.0718C16.624 23.0337 15.9136 22.8423 15.7039 22.7808V22.443C17.0607 21.7051 17.9837 20.2665 17.9837 18.6163V16.5996C17.9837 14.1988 16.0311 12.2455 13.6311 12.2455C11.2303 12.2455 9.27713 14.1988 9.27713 16.5996V18.6163C9.27713 20.2662 10.2001 21.7046 11.5571 22.4426V22.7808C11.3473 22.8422 11.1295 22.9011 10.904 22.9621C9.1841 23.4258 7.04316 24.0026 7 26.6275V31.078C7 31.3583 7.2275 31.5858 7.50781 31.5858H14.3744V32.3079L14.3742 32.3116C14.3742 32.592 14.6015 32.8194 14.882 32.8194H17.5176C17.7981 32.8194 18.0254 32.592 18.0254 32.3116C18.0254 32.0311 17.7981 31.8038 17.5176 31.8038H15.39V31.4995C15.3961 31.1278 15.4453 30.8231 15.5337 30.5702C15.8531 29.6552 16.6798 29.4114 17.8056 29.0793C17.8585 29.0638 17.9119 29.048 17.9655 29.0321C18.2329 29.7645 18.9364 30.2887 19.7602 30.2887C20.6524 30.2887 21.3716 29.7803 21.6379 29.0332C21.6903 29.0487 21.7424 29.0641 21.794 29.0792C23.2311 29.5033 24.1807 29.7831 24.2097 31.4995V31.8037H22.0778C21.7973 31.8037 21.57 32.0311 21.57 32.3115C21.57 32.592 21.7973 32.8193 22.0778 32.8193H24.7177C24.9981 32.8193 25.2255 32.592 25.2255 32.3115L25.2253 32.3077V31.5857H31.9998C32.2802 31.5857 32.5076 31.3584 32.5076 31.0779V26.6356C32.5076 26.6329 32.5076 26.6301 32.5075 26.6273C32.49 25.5638 32.1281 24.8365 31.5894 24.3168C32.3205 23.9741 32.7231 23.3621 32.985 22.3055ZM25.8765 13.205C26.8355 13.205 27.5887 13.5261 28.1151 14.1592C28.6433 14.7945 28.9361 15.7242 28.9892 16.9247C28.0487 17.0878 26.9416 16.956 26.3296 15.7457C26.1454 15.3822 25.6073 15.3818 25.4232 15.7457C24.8114 16.9556 23.7049 17.0877 22.7646 16.9249C22.8821 14.587 24.0261 13.205 25.8765 13.205ZM22.754 17.9506C22.9701 17.9807 23.1804 17.9959 23.3841 17.9959C24.408 17.9959 25.2669 17.6181 25.8765 16.8951C26.4859 17.6182 27.3448 17.9959 28.3689 17.9959C28.5725 17.9959 28.7828 17.9807 28.9989 17.9506V18.3961C28.9989 20.1179 27.5982 21.5187 25.8765 21.5187C24.1548 21.5187 22.7541 20.1179 22.7541 18.3961L22.754 17.9506ZM26.9347 22.3964V23.155C26.9347 23.7378 26.46 24.2119 25.8765 24.2119C25.2937 24.2119 24.8196 23.7378 24.8196 23.155V22.3968C25.1571 22.4862 25.5112 22.5343 25.8765 22.5343C26.2422 22.5343 26.5968 22.486 26.9347 22.3964ZM22.2762 20.4323C22.6395 21.0722 23.1684 21.606 23.804 21.9758V22.7808C23.5928 22.8427 23.374 22.9017 23.1471 22.9628C23.0426 22.991 22.9366 23.0197 22.8301 23.0489C22.5724 22.3843 22.1038 21.8248 21.5064 21.4539C21.8214 21.1489 22.0789 20.8072 22.2762 20.4323ZM17.7305 23.377C18.0632 22.5605 18.8655 21.9831 19.8004 21.9831C20.8865 21.9831 21.7931 22.7645 21.9932 23.7967C21.3164 23.4727 20.5634 23.2996 19.8 23.2996C19.0363 23.2996 18.2832 23.4729 17.6065 23.7971C17.6344 23.6516 17.676 23.511 17.7305 23.377ZM10.2928 16.5996C10.2928 14.7588 11.7904 13.2611 13.6312 13.2611C15.4712 13.2611 16.9681 14.7588 16.9681 16.5996V17.125C15.6332 17.1696 13.9508 17.0109 12.7104 16.1619C12.4871 16.0091 12.1832 16.0581 12.0194 16.2733C11.59 16.8376 11.0508 16.9775 10.2929 17.0676L10.2928 16.5996ZM10.2928 18.6163V18.0898C11.1096 17.9985 11.8789 17.8493 12.5176 17.2373C13.9072 18.0241 15.6046 18.1828 16.9681 18.1412V18.6163C16.9681 20.4564 15.4711 21.9534 13.6311 21.9534C11.7904 21.9534 10.2928 20.4564 10.2928 18.6163ZM14.6882 22.8385V23.1504L14.688 23.155C14.688 23.7377 14.2139 24.2119 13.6311 24.2119C13.0476 24.2119 12.5728 23.7377 12.5728 23.155L12.5727 23.1518V22.8382C12.9117 22.9232 13.2662 22.9689 13.6311 22.9689C13.9957 22.969 14.3497 22.9233 14.6882 22.8385ZM17.8504 28.0062C17.7392 28.0402 17.628 28.0732 17.5183 28.1052C16.265 28.4749 14.8675 28.8867 14.479 30.5701H10.7333V28.5156C10.7333 28.2351 10.5059 28.0078 10.2255 28.0078C9.94501 28.0078 9.71766 28.2351 9.71766 28.5156V30.5701H8.01562V26.6402C8.04609 24.9085 9.22727 24.4657 11.1681 23.9427C11.3316 23.8985 11.4977 23.8535 11.6629 23.8068C11.937 24.6311 12.7155 25.2275 13.6312 25.2275C14.5462 25.2275 15.3242 24.6311 15.598 23.8068C15.7634 23.8534 16.4062 24.028 16.5544 24.0701C16.5519 24.1189 16.5509 24.1681 16.5509 24.2174V24.9354C16.5509 25.9963 17.0617 26.9403 17.8504 27.5334V28.0062ZM20.7337 28.377L20.7336 28.3788C20.7336 28.9932 20.2291 29.2731 19.7603 29.2731C19.2672 29.2731 18.8661 28.8719 18.8661 28.3788L18.866 28.3774V28.0483C18.9894 28.0854 19.1158 28.1159 19.2453 28.1377C19.4256 28.1692 19.611 28.1854 19.8004 28.1854C19.9568 28.1854 20.1107 28.1743 20.261 28.1524C20.4224 28.1301 20.5804 28.0951 20.7337 28.0488V28.377ZM21.0039 26.8174C20.3213 27.2724 19.2968 27.2952 18.6146 26.8281C17.9986 26.4407 17.5851 25.7609 17.5681 24.9848C18.8978 24.0989 20.7023 24.0989 22.0331 24.985C22.0162 25.7535 21.6104 26.4282 21.0039 26.8174ZM31.492 30.57H29.79V28.5156C29.79 28.2351 29.5626 28.0078 29.2822 28.0078C29.0017 28.0078 28.7743 28.2351 28.7743 28.5156V30.57H25.1206C24.7318 28.8867 23.3346 28.4748 22.0815 28.1052C21.9718 28.0732 21.8606 28.0402 21.7494 28.0062V27.5349C22.539 26.9413 23.0504 25.9968 23.0504 24.9354V24.226C23.0504 24.1646 23.0483 24.1037 23.0449 24.0431C23.1676 24.0092 23.2904 23.976 23.4112 23.9435C23.5759 23.8991 23.7431 23.8539 23.9096 23.8069C24.1835 24.6312 24.9614 25.2275 25.8764 25.2275C26.792 25.2275 27.5705 24.6312 27.8446 23.807C28.0098 23.8536 28.1759 23.8985 28.3394 23.9426C30.2804 24.4658 31.4616 24.9086 31.4919 26.64L31.492 30.57ZM30.4917 23.5897C29.8851 23.3074 29.2177 23.1274 28.6037 22.9619C28.378 22.9011 28.1602 22.8424 27.9504 22.7808V21.9749C28.5839 21.6061 29.1113 21.0741 29.4742 20.4366C30.0514 21.5308 31.0501 22.1517 31.874 22.4946C31.6309 23.2017 31.2885 23.4554 30.4917 23.5897Z" fill="#F07C7C"/>
<path d="M19.6826 13.6195C19.781 13.7144 19.9082 13.7619 20.0353 13.7619C20.1625 13.7619 20.2896 13.7144 20.388 13.6195L23.0752 11.0257C23.9633 10.1693 23.9892 8.75007 23.1326 7.86165C22.7188 7.43342 22.1611 7.1917 21.5623 7.18103C20.9927 7.17088 20.4546 7.3704 20.0353 7.7445C19.6158 7.37035 19.0776 7.17103 18.5084 7.18103C17.9096 7.1917 17.3519 7.43347 16.9373 7.86242C16.0822 8.75119 16.1082 10.1703 16.9952 11.0256L19.6826 13.6195ZM17.6684 8.56741C17.8939 8.33407 18.1986 8.20235 18.5265 8.19651C18.5341 8.1964 18.5416 8.1963 18.5492 8.1963C18.8685 8.1963 19.1684 8.31665 19.3963 8.53679L19.6827 8.81319C19.8795 9.00301 20.1912 9.00301 20.3879 8.81319L20.6747 8.53654C20.9076 8.31142 21.2157 8.19072 21.5442 8.19651C21.8721 8.20235 22.1768 8.33407 22.4019 8.56706C22.8695 9.05197 22.8553 9.82699 22.3701 10.2948L20.0354 12.5484L17.7004 10.2947C17.2159 9.82745 17.2019 9.05227 17.6684 8.56741V8.56741Z" fill="#F07C7C"/>
<path d="M19.7977 31.8037C19.5173 31.8037 19.2899 32.0311 19.2899 32.3115C19.2899 32.592 19.5173 32.8193 19.7977 32.8193H19.8006C20.0811 32.8193 20.307 32.592 20.307 32.3115C20.307 32.0311 20.0782 31.8037 19.7977 31.8037Z" fill="#F07C7C"/>
</g>
<defs>
<clipPath id="clip0">
<rect width="26" height="26" fill="white" transform="translate(7 7)"/>
</clipPath>
</defs>
</svg>
