<svg width="35" height="35" viewBox="0 0 35 35" fill="none" xmlns="http://www.w3.org/2000/svg">
<circle cx="17.5" cy="17.5" r="17.5" fill="#C5331E"/>
<path d="M17.7989 16.1365V19.6H22.5094C21.8167 21.4703 20.0156 22.7172 17.9375 22.7172C15.2359 22.7172 13.0885 20.5698 13.0885 17.8682C13.0885 15.1667 15.2359 13.0193 17.9375 13.0193C18.9766 13.0193 19.9464 13.3656 20.7776 13.9198L21.0547 14.1276L23.1328 11.426L22.8557 11.2182C21.401 10.1792 19.7385 9.625 17.9375 9.625C13.3656 9.625 9.625 13.3656 9.625 17.9375C9.625 22.5094 13.3656 26.25 17.9375 26.25C22.5094 26.25 26.25 22.5094 26.25 17.9375V16.2057H17.7989V16.1365Z" fill="white"/>
</svg>
