<svg width="36" height="36" viewBox="0 0 36 36" fill="none" xmlns="http://www.w3.org/2000/svg">
<path d="M24.8229 21.1588C24.0313 21.1588 23.3007 21.4139 22.7285 21.8399L16.9729 18.0159C17.0693 17.5301 17.0693 17.0324 16.9729 16.5466L22.7285 12.7226C23.3007 13.1486 24.0313 13.4037 24.8229 13.4037C26.6618 13.4037 28.1563 12.0313 28.1563 10.3425C28.1563 8.6537 26.6618 7.28125 24.8229 7.28125C22.984 7.28125 21.4896 8.6537 21.4896 10.3425C21.4896 10.6384 21.534 10.9216 21.6201 11.192L16.1535 14.8272C15.3424 13.8399 14.0535 13.1996 12.6007 13.1996C10.1451 13.1996 8.15625 15.0261 8.15625 17.2813C8.15625 19.5364 10.1451 21.3629 12.6007 21.3629C14.0535 21.3629 15.3424 20.7226 16.1535 19.7353L21.6201 23.3705C21.534 23.6409 21.4896 23.9267 21.4896 24.22C21.4896 25.9088 22.984 27.2813 24.8229 27.2813C26.6618 27.2813 28.1563 25.9088 28.1563 24.22C28.1563 22.5313 26.6618 21.1588 24.8229 21.1588ZM24.8229 9.01594C25.6201 9.01594 26.2674 9.61033 26.2674 10.3425C26.2674 11.0746 25.6201 11.669 24.8229 11.669C24.0257 11.669 23.3785 11.0746 23.3785 10.3425C23.3785 9.61033 24.0257 9.01594 24.8229 9.01594ZM12.6007 19.5261C11.2535 19.5261 10.1563 18.5185 10.1563 17.2813C10.1563 16.044 11.2535 15.0364 12.6007 15.0364C13.9479 15.0364 15.0451 16.044 15.0451 17.2813C15.0451 18.5185 13.9479 19.5261 12.6007 19.5261ZM24.8229 25.5466C24.0257 25.5466 23.3785 24.9522 23.3785 24.22C23.3785 23.4879 24.0257 22.8935 24.8229 22.8935C25.6201 22.8935 26.2674 23.4879 26.2674 24.22C26.2674 24.9522 25.6201 25.5466 24.8229 25.5466Z" fill="white"/>
</svg>
