<svg width="35" height="35" viewBox="0 0 35 35" fill="none" xmlns="http://www.w3.org/2000/svg">
<circle cx="17.5" cy="17.5" r="17.5" fill="#2F89CE"/>
<path d="M8.18186 17.8273L12.2052 19.3275L13.7736 24.3737C13.8418 24.7147 14.251 24.7829 14.5237 24.5783L16.774 22.7371C16.9786 22.5326 17.3196 22.5326 17.5924 22.7371L21.6157 25.6694C21.8884 25.874 22.2976 25.7376 22.3658 25.3966L25.3662 11.0763C25.4344 10.7354 25.0935 10.3944 24.7525 10.5308L8.18186 16.9408C7.77271 17.0772 7.77271 17.6909 8.18186 17.8273ZM13.569 18.5774L21.4793 13.7358C21.6157 13.6676 21.7521 13.8722 21.6157 13.9404L15.1374 20.0095C14.9329 20.214 14.7283 20.4868 14.7283 20.8278L14.5237 22.4644C14.5237 22.6689 14.1828 22.7371 14.1146 22.4644L13.2963 19.4639C13.0917 19.123 13.2281 18.7138 13.569 18.5774Z" fill="white"/>
</svg>
