<svg width="35" height="35" viewBox="0 0 35 35" fill="none" xmlns="http://www.w3.org/2000/svg">
<circle cx="17.5" cy="17.5" r="17.5" fill="#7294C7"/>
<path d="M26.0803 21.9755C26.0803 21.9028 26.0077 21.9028 26.0077 21.8302C25.7171 21.249 25.0633 20.5226 24.1916 19.7235C23.7557 19.3603 23.5377 19.0697 23.3925 18.9244C23.1745 18.6338 23.1745 18.4159 23.2472 18.1253C23.3198 17.9074 23.6104 17.5441 24.1189 16.8903C24.4095 16.5271 24.5548 16.3092 24.7727 16.0912C25.8624 14.6383 26.3709 13.6939 26.2256 13.2581L26.153 13.1854C26.0803 13.1128 26.0077 13.0401 25.8624 13.0401C25.7171 12.9675 25.4992 12.9675 25.2812 13.0401H22.5207C22.4481 13.0401 22.4481 13.0401 22.3028 13.0401C22.2301 13.0401 22.1575 13.0401 22.1575 13.0401H22.0848H22.0122L21.9396 13.1128C21.8669 13.1854 21.8669 13.1854 21.8669 13.2581C21.5763 14.0572 21.2131 14.711 20.8499 15.4374C20.6319 15.8007 20.414 16.1639 20.1961 16.4545C19.9781 16.745 19.8328 16.963 19.6875 17.1083C19.5423 17.2536 19.397 17.3262 19.3243 17.4715C19.2517 17.5441 19.1064 17.6168 19.1064 17.5441C19.0338 17.5441 18.9611 17.5441 18.9611 17.4715C18.8885 17.3988 18.8158 17.3262 18.7432 17.2536C18.6705 17.1809 18.6705 17.0356 18.5979 16.8903C18.5979 16.745 18.5979 16.5997 18.5979 16.5271C18.5979 16.4545 18.5979 16.2365 18.5979 16.0912C18.5979 15.8733 18.5979 15.728 18.5979 15.6554C18.5979 15.4374 18.5979 15.1469 18.5979 14.8563C18.5979 14.5657 18.5979 14.3478 18.5979 14.2025C18.5979 14.0572 18.5979 13.8392 18.5979 13.6939C18.5979 13.476 18.5979 13.3307 18.5979 13.2581C18.5979 13.1854 18.5252 13.0401 18.5252 12.9675C18.4526 12.8949 18.3799 12.8222 18.3073 12.7496C18.2347 12.6769 18.0894 12.6769 18.0167 12.6043C17.6535 12.5316 17.2176 12.459 16.7091 12.459C15.5468 12.459 14.7477 12.5316 14.4571 12.6769C14.3118 12.7496 14.1665 12.8222 14.0939 12.9675C13.9486 13.1128 13.9486 13.1854 14.0212 13.1854C14.3845 13.2581 14.6751 13.4034 14.8203 13.6213L14.893 13.7666C14.9656 13.8392 14.9656 13.9845 15.0383 14.2025C15.1109 14.4204 15.1109 14.6383 15.1109 14.9289C15.1109 15.3648 15.1109 15.8007 15.1109 16.0912C15.1109 16.4545 15.0383 16.6724 15.0383 16.8903C15.0383 17.1083 14.9656 17.2536 14.893 17.3262C14.8203 17.4715 14.8203 17.5441 14.7477 17.5441C14.7477 17.5441 14.7477 17.6168 14.675 17.6168C14.6024 17.6168 14.5298 17.6894 14.3845 17.6894C14.3118 17.6894 14.1665 17.6168 14.0939 17.5441C13.9486 17.4715 13.8033 17.3262 13.7307 17.1809C13.5854 17.0356 13.4401 16.8177 13.2948 16.5271C13.1495 16.2365 12.9316 15.9459 12.7863 15.5101L12.641 15.2195C12.5683 15.0742 12.4231 14.7836 12.2778 14.4204C12.1325 14.0572 11.9872 13.7666 11.8419 13.4034C11.7692 13.2581 11.6966 13.1854 11.624 13.1128H11.5513C11.5513 13.1128 11.4787 13.0401 11.406 13.0401C11.3334 13.0401 11.2607 12.9675 11.1881 12.9675H8.57286C8.28228 12.9675 8.13699 13.0401 8.06435 13.1128L7.9917 13.1854C7.9917 13.1854 7.9917 13.2581 7.9917 13.3307C7.9917 13.4034 7.9917 13.476 8.06435 13.6213C8.42757 14.493 8.86344 15.3648 9.29931 16.2365C9.73518 17.0356 10.1711 17.7621 10.4616 18.2706C10.8249 18.7791 11.1154 19.2876 11.4787 19.7235C11.8419 20.1594 12.0598 20.4499 12.1325 20.5952C12.2778 20.7405 12.3504 20.8132 12.423 20.8858L12.641 21.1037C12.7863 21.249 13.0042 21.467 13.2948 21.6849C13.5854 21.9028 13.9486 22.1208 14.3118 22.3387C14.675 22.5566 15.1109 22.7019 15.5468 22.8472C16.0553 22.9925 16.4912 23.0652 16.927 22.9925H18.0167C18.2347 22.9925 18.38 22.9199 18.5252 22.7746L18.5979 22.7019C18.5979 22.6293 18.6705 22.6293 18.6705 22.5566C18.6705 22.484 18.6705 22.4114 18.6705 22.2661C18.6705 21.9755 18.6705 21.7576 18.7432 21.5396C18.8158 21.3217 18.8158 21.1764 18.8885 21.0311C18.9611 20.8858 19.0338 20.8132 19.1064 20.7405C19.179 20.6679 19.2517 20.5952 19.2517 20.5952H19.3243C19.4696 20.5226 19.6876 20.5952 19.8328 20.7405C20.0508 20.8858 20.2687 21.1037 20.414 21.3217C20.5593 21.5396 20.7772 21.7576 21.0678 22.0481C21.3584 22.3387 21.5763 22.5566 21.7216 22.6293L21.9396 22.7746C22.0848 22.8472 22.2301 22.9199 22.4481 22.9925C22.666 23.0652 22.8113 23.0652 22.9566 23.0652L25.4265 22.9925C25.6445 22.9925 25.8624 22.9199 26.0077 22.8472C26.153 22.7746 26.2256 22.7019 26.2256 22.5566C26.2256 22.484 26.2256 22.3387 26.2256 22.2661C26.0803 22.1208 26.0803 22.0481 26.0803 21.9755Z" fill="white"/>
</svg>
