<svg width="20" height="21" viewBox="0 0 20 21" fill="none" xmlns="http://www.w3.org/2000/svg">
<path d="M17.0732 3.0625C15.1916 1.09375 12.6829 0 10.0348 0C4.52961 0 0.0696853 4.66667 0.0696853 10.4271C0.0696853 12.25 0.557491 14.0729 1.39373 15.6042L0 21L5.29617 19.5417C6.75958 20.3438 8.36237 20.7813 10.0348 20.7813C15.5401 20.7813 20 16.1146 20 10.3542C19.9303 7.65625 18.9547 5.03125 17.0732 3.0625ZM14.8432 14.1458C14.6341 14.7292 13.6585 15.3125 13.1707 15.3854C12.7526 15.4583 12.1951 15.4583 11.6376 15.3125C11.2892 15.1667 10.8014 15.0208 10.2439 14.7292C7.73519 13.6354 6.13241 11.0104 5.99303 10.7917C5.85366 10.6458 4.94774 9.40625 4.94774 8.09375C4.94774 6.78125 5.57491 6.19792 5.78397 5.90625C5.99303 5.61458 6.27178 5.61458 6.48084 5.61458C6.62021 5.61458 6.82927 5.61458 6.96864 5.61458C7.10801 5.61458 7.31707 5.54167 7.52613 6.05208C7.73519 6.5625 8.22299 7.875 8.29268 7.94792C8.36237 8.09375 8.36237 8.23958 8.29268 8.38542C8.22299 8.53125 8.15331 8.67708 8.01393 8.82292C7.87456 8.96875 7.73519 9.1875 7.6655 9.26042C7.52613 9.40625 7.38676 9.55208 7.52613 9.77083C7.6655 10.0625 8.15331 10.8646 8.91986 11.5937C9.89547 12.4687 10.662 12.7604 10.9408 12.9063C11.2195 13.0521 11.3589 12.9792 11.4983 12.8333C11.6376 12.6875 12.1254 12.1042 12.2648 11.8125C12.4042 11.5208 12.6132 11.5938 12.8223 11.6667C13.0314 11.7396 14.2857 12.3958 14.4948 12.5417C14.7735 12.6875 14.9129 12.7604 14.9826 12.8333C15.0523 13.0521 15.0523 13.5625 14.8432 14.1458Z" fill="white"/>
</svg>
