<svg width="40" height="40" viewBox="0 0 40 40" fill="none" xmlns="http://www.w3.org/2000/svg">
<path fill-rule="evenodd" clip-rule="evenodd" d="M29.6265 20.5602C29.712 20.2148 29.5171 19.8617 29.1792 19.7501C27.5668 19.2174 25.6446 18.0165 25.6446 15.3198V13.8919C25.6446 11.6899 25.1402 9.96665 24.1454 8.77011C23.1826 7.61209 21.7829 7 20.0977 7C18.4125 7 17.0128 7.61209 16.05 8.77011C15.0552 9.96665 14.5508 11.6899 14.5508 13.8919V15.3198C14.5508 18.0165 12.6286 19.2174 11.0161 19.7501C10.6782 19.8617 10.4834 20.2148 10.5689 20.5602C10.92 21.9766 11.4597 22.7969 12.4396 23.2563C11.7175 23.953 11.2325 24.9278 11.209 26.3534L11.2089 26.3646V32.3193C11.2089 32.6952 11.5137 33 11.8896 33H17.4747C17.8506 33 18.1554 32.6952 18.1554 32.3193C18.1554 31.9433 17.8506 31.6385 17.4747 31.6385H16.2132V28.8846C16.2132 28.5086 15.9084 28.2039 15.5325 28.2039C15.1565 28.2039 14.8518 28.5086 14.8518 28.8846V31.6385H12.5703L12.5703 26.3705C12.611 24.0496 14.1944 23.456 16.7962 22.7547C17.0154 22.6956 17.238 22.6354 17.4595 22.5729C17.8269 23.6777 18.8702 24.4771 20.0976 24.4771C21.325 24.4771 22.3684 23.6777 22.7359 22.5729C22.9574 22.6354 23.18 22.6956 23.3992 22.7547C26.001 23.456 27.5843 24.0496 27.6251 26.3705L27.6251 31.6385H25.3436V28.8846C25.3436 28.5086 25.0388 28.2039 24.6629 28.2039C24.2869 28.2039 23.9822 28.5086 23.9822 28.8846V31.6385H22.7206C22.3447 31.6385 22.0399 31.9433 22.0399 32.3193C22.0399 32.6952 22.3447 33 22.7206 33H28.3058C28.6817 33 28.9865 32.6952 28.9865 32.3193V26.3646L28.9864 26.3534C28.9629 24.9278 28.4778 23.953 27.7557 23.2563C28.7357 22.7969 29.2754 21.9766 29.6265 20.5602ZM23.0985 9.64039C22.3929 8.79168 21.3833 8.36134 20.0977 8.36134C18.8121 8.36134 17.8025 8.79168 17.0969 9.64039C16.3889 10.492 15.9963 11.7382 15.9251 13.3474C17.1859 13.5661 18.6699 13.3894 19.4903 11.767C19.6137 11.5235 19.8557 11.4015 20.0977 11.4014C20.3397 11.4015 20.5817 11.5235 20.7051 11.767C21.5255 13.3894 23.0095 13.5661 24.2703 13.3474C24.1991 11.7382 23.8065 10.492 23.0985 9.64039ZM23.4386 14.7834C22.066 14.7834 20.9147 14.277 20.0977 13.3078C19.2807 14.277 18.1294 14.7834 16.7567 14.7834C16.4837 14.7834 16.2018 14.763 15.9121 14.7227V15.3198C15.9121 17.6278 17.7898 19.5055 20.0977 19.5055C22.4057 19.5055 24.2833 17.6278 24.2833 15.3198V14.7227C23.9936 14.763 23.7117 14.7834 23.4386 14.7834ZM21.5163 21.6989V20.6821C21.0633 20.8022 20.588 20.8668 20.0977 20.8669C19.6074 20.8668 19.1321 20.8022 18.6791 20.6821V21.6989C18.6791 22.4801 19.3155 23.1157 20.0977 23.1157C20.8799 23.1157 21.5163 22.4801 21.5163 21.6989ZM23.7535 21.4401C24.5764 21.662 25.4712 21.9032 26.2843 22.2817C27.3523 22.1016 27.8113 21.7615 28.1372 20.8137C27.0328 20.3541 25.6941 19.5217 24.9203 18.0551C24.4338 18.9096 23.7269 19.6227 22.8777 20.1171V21.1974C23.1589 21.2799 23.4509 21.3586 23.7535 21.4401ZM16.4419 21.4401C15.6189 21.662 14.7242 21.9032 13.9111 22.2817C12.8431 22.1016 12.3841 21.7615 12.0582 20.8137C13.1626 20.3541 14.5013 19.5217 15.275 18.0551C15.7615 18.9096 16.4685 19.6227 17.3177 20.1171V21.1974C17.0364 21.2799 16.7445 21.3586 16.4419 21.4401Z" fill="#F07C7C"/>
<path d="M20.7755 32.3223C20.7755 32.6966 20.472 33 20.0977 33C19.7234 33 19.42 32.6966 19.42 32.3223C19.42 31.948 19.7234 31.6445 20.0977 31.6445C20.472 31.6445 20.7755 31.948 20.7755 32.3223Z" fill="#F07C7C"/>
</svg>
