<svg width="20" height="12" viewBox="0 0 20 12" fill="none" xmlns="http://www.w3.org/2000/svg">
<path d="M19.8142 10.4243C19.8142 10.3448 19.7346 10.3448 19.7346 10.2652C19.4163 9.62859 18.7002 8.83285 17.7453 7.95752C17.2678 7.55964 17.0291 7.24134 16.8699 7.08219C16.6312 6.76389 16.6312 6.52517 16.7108 6.20687C16.7904 5.96814 17.1087 5.57026 17.6657 4.85408C17.984 4.4562 18.1431 4.21748 18.3819 3.97876C19.5755 2.38726 20.1325 1.35277 19.9734 0.87532L19.8938 0.795752C19.8142 0.716177 19.7346 0.636604 19.5755 0.636604C19.4163 0.557029 19.1776 0.557029 18.9389 0.636604H15.915C15.8355 0.636604 15.8355 0.636604 15.6763 0.636604C15.5967 0.636604 15.5172 0.636604 15.5172 0.636604H15.4376H15.358L15.2784 0.716172C15.1989 0.795747 15.1989 0.795745 15.1989 0.87532C14.8806 1.75065 14.4827 2.46682 14.0848 3.26258C13.8461 3.66045 13.6074 4.05833 13.3686 4.37664C13.1299 4.69494 12.9707 4.93366 12.8116 5.09281C12.6524 5.25196 12.4933 5.33153 12.4137 5.49068C12.3341 5.57026 12.175 5.64984 12.175 5.57026C12.0954 5.57026 12.0158 5.57026 12.0158 5.49068C11.9363 5.41111 11.8567 5.33153 11.7771 5.25195C11.6976 5.17238 11.6975 5.01323 11.618 4.85408C11.618 4.69493 11.618 4.53578 11.618 4.4562C11.618 4.37663 11.618 4.13791 11.618 3.97876C11.618 3.74003 11.618 3.58088 11.618 3.5013C11.618 3.26258 11.618 2.94428 11.618 2.62598C11.618 2.30768 11.618 2.06895 11.618 1.9098C11.618 1.75065 11.618 1.51193 11.618 1.35278C11.618 1.11405 11.618 0.954895 11.618 0.87532C11.618 0.795745 11.5384 0.636599 11.5384 0.557024C11.4588 0.477449 11.3792 0.397871 11.2997 0.318296C11.2201 0.238721 11.061 0.238723 10.9814 0.159148C10.5835 0.0795728 10.1061 0 9.54903 0C8.27583 0 7.4005 0.0795776 7.0822 0.238728C6.92305 0.318303 6.7639 0.397873 6.68432 0.557024C6.52517 0.716174 6.52517 0.795752 6.60474 0.795752C7.00262 0.875327 7.32092 1.03447 7.48007 1.2732L7.55965 1.43236C7.63923 1.51193 7.63922 1.67107 7.71879 1.9098C7.79837 2.14853 7.79837 2.38725 7.79837 2.70555C7.79837 3.183 7.79837 3.66046 7.79837 3.97876C7.79837 4.37663 7.71879 4.61535 7.71879 4.85408C7.71879 5.0928 7.63923 5.25196 7.55965 5.33153C7.48008 5.49069 7.48007 5.57026 7.4005 5.57026C7.4005 5.57026 7.40049 5.64983 7.32091 5.64983C7.24134 5.64983 7.16177 5.72941 7.00262 5.72941C6.92304 5.72941 6.7639 5.64984 6.68432 5.57026C6.52517 5.49069 6.36602 5.33154 6.28645 5.17239C6.1273 5.01324 5.96814 4.7745 5.80899 4.4562C5.64984 4.1379 5.41111 3.81961 5.25196 3.34216L5.09282 3.02386C5.01324 2.86471 4.85409 2.5464 4.69494 2.14853C4.53579 1.75065 4.37664 1.43236 4.21749 1.03448C4.13791 0.875329 4.05835 0.795747 3.97877 0.716172H3.89919C3.89919 0.716172 3.81961 0.636604 3.74003 0.636604C3.66046 0.636604 3.58089 0.557024 3.50132 0.557024H0.636604C0.318303 0.557024 0.159155 0.636597 0.07958 0.716172L0 0.795752C0 0.795752 0 0.875325 0 0.9549C0 1.03447 4.85778e-06 1.11405 0.07958 1.2732C0.477456 2.2281 0.954905 3.183 1.43236 4.13791C1.90981 5.01323 2.38726 5.80899 2.70556 6.36601C3.10344 6.92304 3.42174 7.48007 3.81961 7.95752C4.21749 8.43497 4.45621 8.75327 4.53578 8.91242C4.69493 9.07157 4.7745 9.15114 4.85408 9.23071L5.09282 9.46944C5.25197 9.62859 5.49069 9.86732 5.80899 10.106C6.12729 10.3448 6.52516 10.5835 6.92304 10.8222C7.32091 11.0609 7.79838 11.2201 8.27583 11.3793C8.83285 11.5384 9.3103 11.618 9.78775 11.5384H10.9814C11.2201 11.5384 11.3793 11.4588 11.5384 11.2997L11.618 11.2201C11.618 11.1405 11.6975 11.1405 11.6975 11.0609C11.6975 10.9814 11.6975 10.9018 11.6975 10.7426C11.6975 10.4243 11.6976 10.1856 11.7771 9.9469C11.8567 9.70817 11.8567 9.54902 11.9363 9.38987C12.0159 9.23072 12.0954 9.15114 12.175 9.07157C12.2546 8.99199 12.3342 8.91242 12.3342 8.91242H12.4137C12.5729 8.83284 12.8116 8.91242 12.9708 9.07157C13.2095 9.23072 13.4482 9.46944 13.6073 9.70817C13.7665 9.9469 14.0052 10.1856 14.3235 10.5039C14.6418 10.8222 14.8806 11.061 15.0397 11.1405L15.2784 11.2997C15.4376 11.3792 15.5967 11.4588 15.8355 11.5384C16.0742 11.618 16.2333 11.618 16.3925 11.618L19.0981 11.5384C19.3368 11.5384 19.5755 11.4588 19.7346 11.3793C19.8938 11.2997 19.9734 11.2201 19.9734 11.0609C19.9734 10.9814 19.9734 10.8222 19.9734 10.7426C19.8142 10.5835 19.8142 10.5039 19.8142 10.4243Z" fill="white"/>
</svg>
