<svg width="40" height="40" viewBox="0 0 40 40" fill="none" xmlns="http://www.w3.org/2000/svg">
<path fill-rule="evenodd" clip-rule="evenodd" d="M29.9999 13H25V12C25 10.897 24.103 10 23 10H17C15.897 10 15 10.897 15 12V13H10C8.89695 13 8 13.897 8 15V28C8 29.103 8.89695 30 10 30H17C17.2761 30 17.5 29.7761 17.5 29.5C17.5 29.2238 17.2761 29 17 29H10C9.44876 29 9.00003 28.5513 9.00003 28V20.7219C9.29539 20.8941 9.63411 21 10 21H18V22.5C18 22.7764 18.2237 23.0001 18.5 23.0001H21.5C21.7764 23.0001 22 22.7764 22 22.5V21H30C30.3659 21 30.7047 20.8942 31 20.7219L31 28C31 28.5513 30.5512 29 30 29H23C22.7239 29 22.5 29.2238 22.5 29.5C22.5 29.7761 22.7239 30 23 30H30C31.103 30 32 29.103 32 28V15C32 13.897 31.103 13 29.9999 13ZM17 11C16.4487 11 16 11.4488 16 12V13H24V12C24 11.4488 23.5512 11 23 11H17ZM19 20V22H21V20H19ZM30 20C30.5512 20 31 19.5513 31 19V15.0001C31 14.4488 30.5512 14.0001 30 14.0001H10C9.44876 14.0001 9.00003 14.4488 9.00003 15.0001V19C9.00003 19.5513 9.44876 20 10 20H18V19.5C18 19.2236 18.2236 19 18.5 19H21.5C21.7763 19 22 19.2236 22 19.5V20H30Z" fill="#F07C7C" stroke="#F07C7C" stroke-width="0.6"/>
<circle cx="20" cy="29.4973" r="0.8" fill="#F07C7C"/>
</svg>
