<svg width="13" height="13" viewBox="0 0 13 13" fill="none" xmlns="http://www.w3.org/2000/svg">
<path fill-rule="evenodd" clip-rule="evenodd" d="M9.14604 3.14689C9.19248 3.10033 9.24766 3.06339 9.30841 3.03818C9.36915 3.01297 9.43427 3 9.50004 3C9.56581 3 9.63093 3.01297 9.69167 3.03818C9.75242 3.06339 9.80759 3.10033 9.85404 3.14689L12.854 6.14689C12.9006 6.19334 12.9375 6.24851 12.9628 6.30926C12.988 6.37001 13.0009 6.43513 13.0009 6.50089C13.0009 6.56666 12.988 6.63178 12.9628 6.69253C12.9375 6.75327 12.9006 6.80845 12.854 6.85489L9.85404 9.85489C9.76015 9.94878 9.63281 10.0015 9.50004 10.0015C9.36726 10.0015 9.23993 9.94878 9.14604 9.85489C9.05215 9.76101 8.99941 9.63367 8.99941 9.50089C8.99941 9.36812 9.05215 9.24078 9.14604 9.14689L11.793 6.50089L9.14604 3.85489C9.09948 3.80845 9.06253 3.75327 9.03733 3.69253C9.01212 3.63178 8.99915 3.56666 8.99915 3.50089C8.99915 3.43513 9.01212 3.37001 9.03733 3.30926C9.06253 3.24851 9.09948 3.19334 9.14604 3.14689V3.14689Z" fill="#E73C3C"/>
<path fill-rule="evenodd" clip-rule="evenodd" d="M1 6.5C1 6.36739 1.05497 6.24021 1.15281 6.14645C1.25066 6.05268 1.38337 6 1.52174 6H12.4783C12.6166 6 12.7493 6.05268 12.8472 6.14645C12.945 6.24021 13 6.36739 13 6.5C13 6.63261 12.945 6.75979 12.8472 6.85355C12.7493 6.94732 12.6166 7 12.4783 7H1.52174C1.38337 7 1.25066 6.94732 1.15281 6.85355C1.05497 6.75979 1 6.63261 1 6.5Z" fill="#E73C3C"/>
</svg>
